<svg width="64" height="64" viewBox="0 0 64 64" fill="none" xmlns="http://www.w3.org/2000/svg">
<path d="M48.4726 31.0461C48.4514 31.0461 48.432 31.0519 48.411 31.0521C48.8005 30.1512 49.0187 29.1588 49.0187 28.1149C49.0187 24.0215 45.7001 20.7029 41.6067 20.7029C40.1599 20.7029 38.8145 21.124 37.6736 21.8408C36.1304 18.0901 32.4438 15.4471 28.1365 15.4471C22.4407 15.4471 17.8237 20.0642 17.8237 25.76C17.8237 26.1903 17.8585 26.6121 17.9098 27.0286C17.8807 27.0284 17.8527 27.0243 17.8237 27.0243C14.005 27.0243 10.9091 30.1201 10.9091 33.939C10.9091 37.7577 14.005 40.8535 17.8237 40.8535H48.4726C51.181 40.8535 53.3763 38.6581 53.3763 35.9498C53.3763 33.2414 51.181 31.0461 48.4726 31.0461Z" fill="#C2CEF2"/>
<path d="M20.3809 45.932C20.6668 46.9988 20.0337 48.0954 18.9672 48.3812C17.9002 48.6671 16.8035 48.034 16.5177 46.9671C16.2317 45.9 16.8649 44.8034 17.9319 44.5175C18.9984 44.2317 20.095 44.8649 20.3809 45.932Z" fill="white"/>
<path d="M28.1905 46.966C28.3334 47.4994 28.0168 48.0477 27.4836 48.1906C26.9501 48.3336 26.4018 48.017 26.2588 47.4836C26.1159 46.95 26.4324 46.4017 26.966 46.2587C27.4992 46.1159 28.0475 46.4324 28.1905 46.966Z" fill="white"/>
<path d="M22.1905 52.966C22.3334 53.4994 22.0168 54.0477 21.4836 54.1906C20.9501 54.3336 20.4018 54.017 20.2588 53.4836C20.1159 52.95 20.4324 52.4017 20.966 52.2587C21.4992 52.1159 22.0475 52.4324 22.1905 52.966Z" fill="white"/>
<path d="M30.3809 52.932C30.6668 53.9988 30.0337 55.0954 28.9672 55.3812C27.9002 55.6671 26.8035 55.034 26.5177 53.9671C26.2317 52.9 26.8649 51.8034 27.9319 51.5175C28.9984 51.2317 30.095 51.8649 30.3809 52.932Z" fill="white"/>
<path d="M36.1905 52.966C36.3334 53.4994 36.0168 54.0477 35.4836 54.1906C34.9501 54.3336 34.4018 54.017 34.2588 53.4836C34.1159 52.95 34.4324 52.4017 34.966 52.2587C35.4992 52.1159 36.0475 52.4324 36.1905 52.966Z" fill="white"/>
<path d="M37.3809 44.932C37.6668 45.9988 37.0337 47.0954 35.9672 47.3812C34.9002 47.6671 33.8035 47.034 33.5177 45.9671C33.2317 44.9 33.8649 43.8034 34.9319 43.5175C35.9984 43.2317 37.095 43.8649 37.3809 44.932Z" fill="white"/>
<path d="M48.1905 43.966C48.3334 44.4994 48.0168 45.0477 47.4836 45.1906C46.9501 45.3336 46.4018 45.017 46.2588 44.4836C46.1159 43.95 46.4324 43.4017 46.966 43.2587C47.4992 43.1159 48.0475 43.4324 48.1905 43.966Z" fill="white"/>
<path d="M46.3809 49.932C46.6668 50.9988 46.0337 52.0954 44.9672 52.3812C43.9002 52.6671 42.8035 52.034 42.5177 50.9671C42.2317 49.9 42.8649 48.8034 43.9319 48.5175C44.9984 48.2317 46.095 48.8649 46.3809 49.932Z" fill="white"/>
<path d="M24.0952 48.483C24.1667 48.7497 24.0084 49.0238 23.7418 49.0953C23.475 49.1668 23.2009 49.0085 23.1294 48.7418C23.0579 48.475 23.2162 48.2008 23.483 48.1294C23.7496 48.0579 24.0238 48.2162 24.0952 48.483Z" fill="white"/>
<path d="M42.0952 44.483C42.1667 44.7497 42.0084 45.0238 41.7418 45.0953C41.475 45.1668 41.2009 45.0085 41.1294 44.7418C41.0579 44.475 41.2162 44.2008 41.483 44.1294C41.7496 44.0579 42.0237 44.2162 42.0952 44.483Z" fill="white"/>
<path d="M33.0952 57.483C33.1667 57.7497 33.0084 58.0239 32.7418 58.0953C32.475 58.1668 32.2009 58.0085 32.1294 57.7418C32.0579 57.475 32.2162 57.2009 32.483 57.1294C32.7496 57.0579 33.0237 57.2162 33.0952 57.483Z" fill="white"/>
<path d="M40.0952 52.483C40.1667 52.7497 40.0084 53.0239 39.7418 53.0953C39.475 53.1668 39.2009 53.0085 39.1294 52.7418C39.0579 52.475 39.2162 52.2009 39.483 52.1294C39.7496 52.0579 40.0237 52.2162 40.0952 52.483Z" fill="white"/>
<path d="M32.0952 49.483C32.1667 49.7497 32.0084 50.0239 31.7418 50.0953C31.475 50.1668 31.2009 50.0085 31.1294 49.7418C31.0579 49.475 31.2162 49.2009 31.483 49.1294C31.7496 49.0579 32.0238 49.2162 32.0952 49.483Z" fill="white"/>
<path d="M30.0952 43.483C30.1667 43.7497 30.0084 44.0239 29.7418 44.0953C29.475 44.1668 29.2009 44.0085 29.1294 43.7418C29.0579 43.475 29.2162 43.2009 29.483 43.1294C29.7496 43.0579 30.0238 43.2162 30.0952 43.483Z" fill="white"/>
<path d="M23.0952 43.483C23.1667 43.7497 23.0084 44.0239 22.7418 44.0953C22.475 44.1668 22.2009 44.0085 22.1294 43.7418C22.0579 43.475 22.2162 43.2009 22.483 43.1294C22.7496 43.0579 23.0238 43.2162 23.0952 43.483Z" fill="white"/>
<path d="M18.0952 50.483C18.1667 50.7497 18.0084 51.0239 17.7418 51.0953C17.475 51.1668 17.2009 51.0085 17.1294 50.7418C17.0579 50.475 17.2162 50.2009 17.483 50.1294C17.7496 50.0579 18.0238 50.2162 18.0952 50.483Z" fill="white"/>
</svg>
